<svg width="73" height="56" viewBox="0 0 73 56" fill="none" xmlns="http://www.w3.org/2000/svg">
<path d="M32.5219 10.6991C32.5219 12.0327 31.4308 13.1238 30.0972 13.1238H1V8.27429H30.0972C31.4308 8.27429 32.5219 9.36544 32.5219 10.6991Z" fill="#ED143D"/>
<path d="M22.8229 20.3981C22.8229 21.7317 21.7317 22.8229 20.3981 22.8229H1V17.9734H20.3981C21.7317 17.9734 22.8229 19.0645 22.8229 20.3981Z" fill="#ED143D"/>
<path d="M71.3182 30.0972V47.0705C71.3182 48.4042 70.227 49.4953 68.8934 49.4953H44.6458C43.3121 49.4953 42.221 48.4042 42.221 47.0705V17.9734C42.221 16.6397 43.3121 15.5486 44.6458 15.5486H59.1944C59.9218 15.5486 60.625 15.8881 61.0857 16.47L70.7847 28.5696C70.906 28.7393 71.0272 28.9333 71.1242 29.1273C71.1242 29.1515 71.1242 29.1515 71.1242 29.1515C71.1242 29.1515 71.1242 29.1515 71.1242 29.1758C71.2697 29.4667 71.3182 29.782 71.3182 30.0972Z" fill="#ED143D"/>
<path d="M47.0705 1H3.42477C2.09114 1 1 2.09114 1 3.42477V47.0705C1 48.4042 2.09114 49.4953 3.42477 49.4953H49.4953V3.42477C49.4953 2.09114 48.4042 1 47.0705 1Z" fill="#ED143D"/>
<path d="M32.5219 10.6991C32.5219 12.0327 31.4308 13.1238 30.0972 13.1238H1V8.27429H30.0972C31.4308 8.27429 32.5219 9.36544 32.5219 10.6991Z" fill="#ED143D"/>
<path d="M22.8229 20.3981C22.8229 21.7317 21.7317 22.8229 20.3981 22.8229H1V17.9734H20.3981C21.7317 17.9734 22.8229 19.0645 22.8229 20.3981Z" fill="#ED143D"/>
<path d="M66.4686 47.0705C66.4686 51.0714 63.1952 54.3448 59.1943 54.3448C55.1935 54.3448 51.9201 51.0714 51.9201 47.0705C51.9201 43.0697 55.1935 39.7962 59.1943 39.7962C63.1952 39.7962 66.4686 43.0697 66.4686 47.0705Z" fill="#ED143D"/>
<path d="M25.2477 47.0705C25.2477 51.0714 21.9742 54.3448 17.9734 54.3448C13.9725 54.3448 10.6991 51.0714 10.6991 47.0705C10.6991 43.0697 13.9725 39.7962 17.9734 39.7962C21.9742 39.7962 25.2477 43.0697 25.2477 47.0705Z" fill="#ED143D"/>
<path d="M71.3182 30.0972V30.1214L56.7696 30.0972V15.5486H59.1944C59.9218 15.5486 60.625 15.8881 61.0857 16.47L70.7847 28.5696C70.906 28.7393 71.0272 28.9333 71.1242 29.1273C71.1242 29.1515 71.1242 29.1515 71.1242 29.1515C71.1242 29.1515 71.1242 29.1515 71.1242 29.1758C71.2697 29.4667 71.3182 29.782 71.3182 30.0972Z" fill="#ED143D"/>
<path d="M71.3182 30.0972V47.0705C71.3182 48.4042 70.227 49.4953 68.8934 49.4953H44.6458C43.3121 49.4953 42.221 48.4042 42.221 47.0705V17.9734C42.221 16.6397 43.3121 15.5486 44.6458 15.5486H59.1944M71.3182 30.0972C71.3182 29.782 71.2697 29.4667 71.1242 29.1758C71.1242 29.1515 71.1242 29.1515 71.1242 29.1515C71.1242 29.1515 71.1242 29.1515 71.1242 29.1273C71.0272 28.9333 70.906 28.7393 70.7847 28.5696L61.0857 16.47C60.625 15.8881 59.9218 15.5486 59.1944 15.5486M71.3182 30.0972V30.1214L56.7696 30.0972V15.5486H59.1944M32.5219 10.6991C32.5219 12.0327 31.4308 13.1238 30.0972 13.1238H1V8.27429H30.0972C31.4308 8.27429 32.5219 9.36544 32.5219 10.6991ZM22.8229 20.3981C22.8229 21.7317 21.7317 22.8229 20.3981 22.8229H1V17.9734H20.3981C21.7317 17.9734 22.8229 19.0645 22.8229 20.3981ZM47.0705 1H3.42477C2.09114 1 1 2.09114 1 3.42477V47.0705C1 48.4042 2.09114 49.4953 3.42477 49.4953H49.4953V3.42477C49.4953 2.09114 48.4042 1 47.0705 1ZM66.4686 47.0705C66.4686 51.0714 63.1952 54.3448 59.1943 54.3448C55.1935 54.3448 51.9201 51.0714 51.9201 47.0705C51.9201 43.0697 55.1935 39.7962 59.1943 39.7962C63.1952 39.7962 66.4686 43.0697 66.4686 47.0705ZM25.2477 47.0705C25.2477 51.0714 21.9742 54.3448 17.9734 54.3448C13.9725 54.3448 10.6991 51.0714 10.6991 47.0705C10.6991 43.0697 13.9725 39.7962 17.9734 39.7962C21.9742 39.7962 25.2477 43.0697 25.2477 47.0705Z" stroke="#BC0427" stroke-width="2"/>
</svg>
